<?xml version="1.0" encoding="UTF-8" standalone="no"?>
<!DOCTYPE svg PUBLIC "-//W3C//DTD SVG 1.1//EN" "http://www.w3.org/Graphics/SVG/1.1/DTD/svg11.dtd">
<svg width="100%" height="100%" viewBox="0 0 479 384" version="1.1" xmlns="http://www.w3.org/2000/svg" xmlns:xlink="http://www.w3.org/1999/xlink" xml:space="preserve" xmlns:serif="http://www.serif.com/" style="fill-rule:evenodd;clip-rule:evenodd;stroke-linecap:round;stroke-linejoin:round;stroke-miterlimit:1.5;">
    <g transform="matrix(1,0,0,1,-982.075,-3798.36)" fill="#65101B">
        <g transform="matrix(1.37868,0,0,1,-1662.78,2918.72)">
            <g transform="matrix(0.529073,-0.0801155,0.059609,0.748236,1689.49,-1432.39)">
                <path d="M185.204,3465.11C185.693,3464.81 185.736,3465.06 188.29,3465.53C283.028,3482.95 368.186,3466.85 389.533,3463.24C473.408,3449.06 531.51,3422.58 554.539,3411.86C559.69,3409.47 559.646,3409.39 564.819,3407.04C613.223,3385.1 664.323,3352.61 686.801,3313.67C699.789,3291.18 700.087,3271.7 695.462,3256.57C686.013,3225.67 638.953,3232.17 632.816,3259.63C631.673,3264.74 631.394,3273.93 636.727,3281.36C648.031,3297.11 676.793,3295.21 682.8,3286.07C682.835,3286.02 683.001,3285.62 683.205,3285.73C683.569,3285.93 682.197,3287.56 682.08,3287.7C672.481,3299.1 630.273,3300.43 626.924,3267.2C622.923,3227.52 684.983,3210.62 704.718,3247.93C705.637,3249.67 712.8,3263.63 711.695,3283.81C709.059,3331.97 661.031,3383.06 587.172,3422.54C580.411,3426.16 574.957,3428.86 573.271,3429.7C572.398,3430.13 562.839,3434.46 556.162,3437.17C536.049,3445.33 474.326,3469.23 388.941,3479.25C388.758,3479.27 372.576,3481.1 351.388,3482.06C271.063,3485.71 214.611,3473.24 185.33,3465.3C185.254,3465.28 185.137,3465.15 185.204,3465.11Z"/>
            </g>
        </g>
        <g transform="matrix(1.37868,0,0,1,-1662.78,2918.72)">
            <g transform="matrix(0.664658,0,0,0.916351,1787.23,-1911.72)">
                <path d="M609.575,3132.97C605.885,3128.72 600.565,3121.8 597.859,3113.51C596.571,3109.57 595.987,3105.79 595.93,3101.05C595.929,3101.03 596.196,3097.11 597.616,3092.3C604.422,3069.25 627.596,3056.13 651.122,3053.18C689.172,3048.41 724.492,3070.69 698.234,3116.26L697.723,3117.14C699.712,3112.7 714.085,3082.65 692.928,3068.1C673.271,3054.58 633.382,3062.49 618.075,3084.25C611.848,3093.11 612.277,3100.99 612.161,3102.03C611.822,3105.07 609.723,3111.54 617.811,3125.7C618.096,3126.2 620.491,3130.4 621.604,3131.8C622.751,3133.25 625.697,3136.61 623.814,3140.19C622.117,3143.43 618.349,3143.11 618.027,3143.13C594.831,3144.31 578.263,3147.95 566.957,3151.07C542.935,3157.71 517.453,3169.35 493.52,3191.61C485.248,3199.3 479.141,3206.26 474.695,3211.4C451.891,3237.8 434.067,3271.21 419.935,3295.55C404.303,3322.46 392.81,3340.18 376.739,3356.25C371.943,3361.04 365.175,3366.73 364.136,3367.6C348.861,3380.44 326.595,3396.43 289.252,3416.04C258.713,3432.08 227.348,3445.28 208.256,3453.34C233.998,3439.55 286.407,3411.71 327.869,3378.81C334.975,3373.17 351.774,3359.96 367.567,3341.67C390.349,3315.29 406.325,3276.1 429.329,3237.66C437.541,3223.94 447.569,3208.96 460.875,3194.07C460.876,3194.07 464.739,3189.82 470.025,3184.77C516.844,3140.02 572.245,3135.04 595.154,3133.54C600.624,3133.18 605.588,3133.03 609.575,3132.97Z"/>
            </g>
        </g>
        <g transform="matrix(1.37868,0,0,1,-1662.78,2918.72)">
            <g transform="matrix(-0.244884,0.134674,0.182091,0.62935,2272.73,416.882)">
                <path d="M640.572,647.749C644.972,647.749 653.774,652.563 653.774,654.971C653.774,657.378 644.972,662.192 640.572,662.192C636.171,662.192 627.37,657.378 627.37,654.971C627.37,652.563 636.171,647.749 640.572,647.749Z" style="stroke:#65101B;stroke-width:4.6px;"/>
            </g>
        </g>
    </g>
</svg>
