<?xml version="1.0" encoding="UTF-8" standalone="no"?>
<!DOCTYPE svg PUBLIC "-//W3C//DTD SVG 1.1//EN" "http://www.w3.org/Graphics/SVG/1.1/DTD/svg11.dtd">
<svg width="100%" height="100%" viewBox="0 0 811 2134" version="1.1" xmlns="http://www.w3.org/2000/svg" xmlns:xlink="http://www.w3.org/1999/xlink" xml:space="preserve" xmlns:serif="http://www.serif.com/" style="fill-rule:evenodd;clip-rule:evenodd;stroke-linejoin:round;stroke-miterlimit:2;">
    <g id="Artboard2" transform="matrix(0.365716,0,0,1.16911,906.728,-2892.6)">
        <rect x="-2479.32" y="2474.18" width="2216.75" height="1824.63" style="fill:none;"/>
        <clipPath id="_clip1">
            <rect x="-2479.32" y="2474.18" width="2216.75" height="1824.63"/>
        </clipPath>
        <g clip-path="url(#_clip1)">
            <g transform="matrix(-2.73447,0,0,0.855349,1570.27,99.6558)">
                <path d="M1135.38,3241.9C1185.06,3182.34 1244.09,3131 1303.53,3088.25C1322.05,3220.55 1360.88,3277.01 1360.88,3386.32C1360.88,3516.94 1227.01,3601.7 1075.64,3601.7C924.276,3601.7 790.403,3516.94 790.403,3386.32C790.403,3277.01 829.228,3220.55 847.748,3088.25C966.862,3173.91 1084.28,3294.04 1128.21,3445.75C1166.79,3356.66 1148.31,3280.51 1075.64,3178.48C985.082,3051.33 740.378,2881.45 670.307,2889.11C822.54,3056.84 692.306,3199.75 692.306,3386.32C692.306,3523.13 818.899,3709.86 1075.64,3709.86C1332.38,3709.86 1458.97,3523.13 1458.97,3386.32C1458.97,3199.75 1328.74,3056.84 1480.97,2889.11C1413.5,2881.74 1184.12,3038.97 1086.34,3164.16C1089.95,3169.03 1093.4,3173.83 1096.71,3178.48C1112.44,3200.56 1124.57,3221.95 1135.38,3241.9Z" style="fill:white;"/>
            </g>
            <g transform="matrix(-2.73447,0,0,0.855349,1570.27,99.6558)">
                <path d="M1135.38,3241.9C1185.06,3182.34 1244.09,3131 1303.53,3088.25C1322.05,3220.55 1360.88,3277.01 1360.88,3386.32C1360.88,3516.94 1227.01,3601.7 1075.64,3601.7C924.276,3601.7 790.403,3516.94 790.403,3386.32C790.403,3277.01 829.228,3220.55 847.748,3088.25C966.862,3173.91 1084.28,3294.04 1128.21,3445.75C1166.79,3356.66 1148.31,3280.51 1075.64,3178.48C985.082,3051.33 740.378,2881.45 670.307,2889.11C822.54,3056.84 692.306,3199.75 692.306,3386.32C692.306,3523.13 818.899,3709.86 1075.64,3709.86C1332.38,3709.86 1458.97,3523.13 1458.97,3386.32C1458.97,3199.75 1328.74,3056.84 1480.97,2889.11C1413.5,2881.74 1184.12,3038.97 1086.34,3164.16C1089.95,3169.03 1093.4,3173.83 1096.71,3178.48C1112.44,3200.56 1124.57,3221.95 1135.38,3241.9Z" style="fill:white;fill-opacity:0.05;"/>
            </g>
            <g transform="matrix(2.73447,0,0,0.855349,-307.561,39.6731)">
                <path d="M-501.688,2958.99C-434.514,2950.98 -397.624,2912.69 -388.916,2846.21C-380.207,2912.69 -343.317,2950.98 -276.143,2958.99C-342.616,2967.69 -380.908,3004.58 -388.916,3071.76C-396.924,3004.58 -435.215,2967.69 -501.688,2958.99Z" style="fill:white;"/>
            </g>
            <g transform="matrix(-2.73447,0,0,0.855349,1570.27,238.835)">
                <path d="M947.255,3693.16C985.996,3703.57 1028.79,3709.4 1075.64,3709.4C1146.21,3709.4 1207.56,3696.17 1259.74,3674.02C1064.3,3916.52 949.472,4382.88 1075.64,4746.61C986.442,4215.53 1357.16,3648.34 1440.06,3609.95L1392.55,3473.11C1324.8,3546.35 1219.35,3601.24 1075.64,3601.24C932.819,3601.24 827.782,3547.03 759.992,3474.46C771.678,3547.7 598.934,3584.83 803.056,3814.46C853.461,3805.49 895.996,3772.62 922.015,3743.31C942.858,3719.83 953.103,3698.64 948.306,3693.86C947.669,3693.43 947.31,3693.19 947.255,3693.16ZM794.888,3701.62C774.699,3679.51 758.4,3633.34 799.742,3578.97C825.5,3590.51 864.063,3617.85 878.841,3639.82C865.886,3666.01 837.42,3688.15 794.888,3701.62Z" style="fill:white;"/>
            </g>
        </g>
    </g>
</svg>
